<svg width="3157" height="577" viewBox="0 0 3157 577" fill="none" xmlns="http://www.w3.org/2000/svg">
<path d="M159.589 0H157.851C157.851 0 159.009 6.18955e-05 159.589 0.289773V0Z" fill="black"/>
<path d="M157.893 569.573C136.454 569.573 119.361 442.1 119.361 284.786C119.361 127.473 136.744 0 157.893 0H0.289718C21.7284 0 38.8213 127.473 38.8213 284.786C38.8213 442.1 21.4386 569.573 0.289718 569.573C0.289718 569.573 0.289711 569.573 0 569.573H159.631C159.631 569.573 158.472 569.573 157.893 569.573Z" fill="black"/>
<path d="M2989.55 254.963C2991.29 266.841 2992.15 279.009 2992.15 291.177C2992.15 429.08 2878.3 540.908 2738.08 540.908C2597.86 540.908 2484 429.08 2484 291.177C2484 153.275 2597.86 41.4459 2738.08 41.4459C2845.85 41.4459 2946.96 107.5 2984.04 200.497H3145.99C3094.13 87.5099 2938.56 6.10107 2766.18 6.10107C2550.34 6.10107 2375.36 133.864 2375.36 291.467C2375.36 449.07 2550.34 576.833 2766.18 576.833C2982.01 576.833 3157 449.07 3157 291.467C3157 279.009 3155.84 267.131 3153.81 255.253H2989.26L2989.55 254.963Z" fill="black"/>
<path d="M883.3 228.015L323.288 227.146C298.952 227.146 279.252 207.445 279.252 183.11C279.252 176.736 280.7 170.942 283.018 165.437C328.213 90.9814 413.099 41.151 506.965 41.151C600.831 41.151 692.96 94.7476 735.837 173.549H867.656C806.237 74.7575 660.802 5.80615 502.33 5.80615C303.298 5.80615 139.032 114.158 114.696 254.668H712.37C736.416 254.668 755.827 274.079 756.117 297.835C752.35 432.551 640.232 540.903 502.04 540.903C363.848 540.903 258.393 438.925 248.542 309.714H112.088C125.125 458.625 294.607 576.538 502.04 576.538C709.473 576.538 892.861 448.775 892.861 291.172C892.861 269.444 889.384 248.295 883.3 228.015Z" fill="black"/>
<path d="M1257.15 14.4844C1041.32 14.4844 866.334 142.247 866.334 299.85C866.334 422.977 973.237 528.143 1123.31 567.833V517.713C1042.19 476.574 986.564 398.931 982.798 309.411C982.798 309.411 982.798 307.962 982.798 307.383C982.798 283.047 1002.5 263.346 1026.54 263.346H1487.48C1511.81 263.346 1531.22 283.047 1531.22 307.383C1531.22 307.962 1531.22 308.831 1531.22 309.411C1527.46 398.931 1471.83 476.574 1390.71 517.713V567.833C1540.49 527.853 1647.69 422.977 1647.69 299.85C1647.69 142.247 1472.7 14.4844 1256.86 14.4844H1257.15ZM1257.15 50.119C1355.37 50.119 1441.41 97.0521 1489.79 167.452C1494.43 174.405 1497.33 182.807 1497.33 191.788C1497.33 216.124 1477.62 235.534 1453.58 235.824H1060.73C1036.68 235.824 1016.98 216.124 1016.98 191.788C1016.98 182.517 1019.88 174.115 1024.52 167.162C1073.19 96.7623 1158.94 50.119 1257.15 50.119Z" fill="black"/>
<path d="M2011.76 14.4844C1795.92 14.4844 1620.94 142.247 1620.94 299.85C1620.94 422.977 1727.84 528.143 1877.91 567.833V517.713C1796.79 476.574 1741.17 398.931 1737.4 309.411C1737.4 309.411 1737.4 307.962 1737.4 307.383C1737.4 283.047 1757.1 263.346 1781.15 263.346H2242.08C2266.41 263.346 2285.82 283.047 2285.82 307.383C2285.82 307.962 2285.82 308.831 2285.82 309.411C2282.06 398.931 2226.43 476.574 2145.31 517.713V567.833C2295.09 527.853 2402.29 422.977 2402.29 299.85C2402.29 142.247 2227.3 14.4844 2011.47 14.4844H2011.76ZM2011.76 50.119C2109.97 50.119 2196.01 97.0521 2244.39 167.452C2249.03 174.405 2251.93 182.807 2251.93 191.788C2251.93 216.124 2232.23 235.534 2208.18 235.824H1815.33C1791.29 235.824 1771.59 216.124 1771.59 191.788C1771.59 182.517 1774.48 174.115 1779.12 167.162C1827.79 96.7623 1913.54 50.119 2011.76 50.119Z" fill="black"/>
<path d="M130.428 184.552C122.027 184.552 115.363 177.888 115.363 169.487C115.363 169.487 115.363 169.486 115.363 169.197H95.6631V250.606H143.755V177.309C141.148 181.655 136.223 184.841 130.718 184.841L130.428 184.552Z" fill="black"/>
<path d="M126.94 386.762C131.575 386.762 135.342 389.37 137.08 393.136V328.241H101.445V398.351H115.351C115.351 391.977 120.566 386.762 126.94 386.762Z" fill="black"/>
</svg>
